<svg id="图层_1" data-name="图层 1" xmlns="http://www.w3.org/2000/svg" viewBox="0 0 1190.55 566.93"><title>即刻出发_画板 1</title><rect x="492.54" y="283.45" width="5" height="2.05" style="fill:#0e0e0e"/><rect x="582.44" y="270.67" width="7.13" height="3.64" style="fill:#0e0e0e"/><rect x="582.44" y="277.65" width="7.13" height="3.85" style="fill:#0e0e0e"/><path d="M.73,72.26V516.57H1203.61V72.26ZM708.51,266a41.75,41.75,0,0,1,6.19,5.54l-2.67,2.7a31.24,31.24,0,0,0-6.08-5.8ZM615,283l-.86-3.46a3.19,3.19,0,0,0,.79-.32c1.15-.79,2.59-2.85,4.32-6.09h-5.62v-3.49h8A21.73,21.73,0,0,0,620,266.5l4.07-.65a37.33,37.33,0,0,1,1.59,3.81H633v3.49h-9.82a44.33,44.33,0,0,1-4,6.38c2-.22,4-.44,5.94-.72a39,39,0,0,0,2-3.5l3.16,1.66c-3.38,6.91-8.31,11.59-14.79,14.11l-2.09-3.17a23.39,23.39,0,0,0,8.89-5.61C620,282.58,617.5,282.8,615,283Zm-84-16.49a51.07,51.07,0,0,1,6.48,4.75l-2.7,2.7a35.34,35.34,0,0,0-6.3-5Zm-48,1.59a50.72,50.72,0,0,1,2.92,5.68l-2.77,1.87a57.82,57.82,0,0,0-2.88-5.86Zm-9.21,20.33a23,23,0,0,0,2.34.18.78.78,0,0,0,.54-.39,4.65,4.65,0,0,0,.14-1.23,15.83,15.83,0,0,0-2.3-7.41c.93-3.31,1.65-6.34,2.16-9h-2.95v28.54h-3.46V267.29h9.83v2.8c-.65,2.88-1.37,5.87-2.2,9A23.33,23.33,0,0,1,480.2,287a5.58,5.58,0,0,1-.9,3.53c-.87.9-2.31,1.37-4.4,1.37Zm27.68,10.48h-6.7c-1,0-2,0-3-.07a13.89,13.89,0,0,1-4-.65,6.29,6.29,0,0,1-2.84-2.09,1.7,1.7,0,0,0-1.15-.72c-.58,0-1.84,1.37-3.71,4.1L478,296.64a15.83,15.83,0,0,1,4.28-4.39v-11h-2.52v-3.31h6v3.42a23.25,23.25,0,0,0,4.71-8.68h-4V269.3h4.83c.18-1,.32-2,.46-3.06l3.64.46c-.22.91-.4,1.77-.58,2.6h7.31v3.38h-8.21c-.28.94-.61,1.84-.93,2.7h7.92V291.3c0,1.9-1,2.88-3,2.95h-2.34l-.86-3.17a15.73,15.73,0,0,0,2.16.18c.5,0,.75-.36.75-1v-1.77h-5v5.91h-3.2V281.9a18.9,18.9,0,0,1-1.95,2.05l-1.72-2.19V293a6.86,6.86,0,0,0,2.23,1.77,13.07,13.07,0,0,0,3.38.72c1.26,0,2.52.07,3.78.07,2.59,0,5,0,7.34-.11Zm33,.07c-1.58,0-3.24-1.08-4.93-3.2a17.55,17.55,0,0,1-1.8-2.85,29.22,29.22,0,0,1-8.17,4.75l-2.09-3.2a26.8,26.8,0,0,0,8.72-5.18c-.4-1.16-.76-2.34-1.08-3.57a43.48,43.48,0,0,1-1.23-6.8h-7.7v5.33c2.09-.54,4.1-1.12,6-1.77v3.82c-1.9.65-3.88,1.22-6,1.76v7.31c0,2.38-1.26,3.6-3.78,3.6h-4.07l-.83-3.56a30.91,30.91,0,0,0,3.6.21,1.12,1.12,0,0,0,1.26-.94,1.31,1.31,0,0,0,0-.28V289c-2.08.43-4.21.83-6.44,1.19l-.54-3.78c2.45-.36,4.79-.79,7-1.26V279h-7v-3.6h7V272c-1.72.36-3.49.65-5.36.9l-.79-3.56a49.69,49.69,0,0,0,13.32-3.17l1.29,3.53c-1.47.54-3,1-4.64,1.44v4.21h7.38c-.22-2.77-.29-5.83-.29-9.14H527c0,3.45.14,6.48.36,9.14h10.76V279H527.68a36.2,36.2,0,0,0,.93,5.76c.15.58.29,1.08.44,1.58a32.15,32.15,0,0,0,3.85-6.12l3.24,1.73a35.57,35.57,0,0,1-5.69,8.46,12.12,12.12,0,0,0,1.15,2.2c1,1.58,1.8,2.37,2.3,2.37s.8-1.83,1.23-5.43l3.35,1.76c-.94,5.1-2.27,7.69-4,7.69Zm14,.58a8.65,8.65,0,0,1-4.5,2.91V300.1a6.2,6.2,0,0,0,2.49-1.73,4.21,4.21,0,0,0,.93-2.56,2.79,2.79,0,0,1-3.54-1.72,2.84,2.84,0,0,1-.15-1,2.61,2.61,0,0,1,.86-2.05,2.92,2.92,0,0,1,2.16-.79,3,3,0,0,1,2.45,1.19,5,5,0,0,1,.94,3.09,8,8,0,0,1-1.66,5Zm44.21-1.84c-.51-1.08-1-2.16-1.59-3.24a92.54,92.54,0,0,1-12.59,4l-1.3-3.6a2,2,0,0,0,1.58-1.91v-25.7h14.33V285H582.44v8.67c2.52-.72,4.78-1.51,6.87-2.3-.54-.94-1.08-1.84-1.65-2.74l2.84-1.8a77.66,77.66,0,0,1,5.07,8.86Zm16.52-7.27c0,2.73-1.37,4.1-4,4.1h-2.74l-1-3.63,2.48.14a1.36,1.36,0,0,0,1.54-1.15,1.22,1.22,0,0,0,0-.33V270.89h-5.08V299.4h-3.74v-32h12.56Zm21.71,8.93a38,38,0,0,0-5.51-5.69,32.25,32.25,0,0,1-10.4,5.94l-2.16-3.24a29.45,29.45,0,0,0,17.32-14.54l3.27,1.65a39.22,39.22,0,0,1-5.4,7.7,54.92,54.92,0,0,1,5.73,5.37Zm3.74-30.06h3.64v22.14h-3.64Zm10.62,26c0,2.52-1.26,3.78-3.74,3.78h-5.36l-.87-3.56c1.73.14,3.35.22,4.93.22.87,0,1.3-.47,1.3-1.41V266.28h3.74Zm35.18,3.85h-3.79v-1.58H654.83v1.58h-3.78V284.6h3.78V294h9V281.9h-11V268.83h3.78v9.47h7.17V266.14h3.88V278.3h7.17v-9.47h3.78V281.9h-11V294h9v-9.4h3.79Zm35.31.33a58.59,58.59,0,0,1-10.8-5.11,50.33,50.33,0,0,1-10.26,5.29l-2-3.53a51.49,51.49,0,0,0,8.93-4.1,21.09,21.09,0,0,1-5-5.65A36.68,36.68,0,0,1,687,298.93l-2-3.49c4.86-4.32,8.49-10.15,10.94-17.53h-8.75l2.88-10.7,3.75.62-1.8,6.51h5a82.82,82.82,0,0,0,1.59-8.28l3.85.47c-.43,2.77-.94,5.36-1.55,7.81h16.38v3.57H700c-.36,1.08-.68,2.08-1,3.09h14.25v3.17a17.69,17.69,0,0,1-5.15,7.77,58.51,58.51,0,0,0,9.61,4Zm16.56-1a5.26,5.26,0,0,1-7.12,0,4.85,4.85,0,0,1-.14-6.86h0l.14-.14a4.91,4.91,0,0,1,3.56-1.37,5,5,0,0,1,3.56,1.41,4.77,4.77,0,0,1,.17,6.74l-.17.17Z" style="fill:#0e0e0e"/><rect x="492.54" y="278.23" width="5" height="2.27" style="fill:#0e0e0e"/><path d="M728.74,292.77a2.34,2.34,0,0,0-1.69.69,2,2,0,0,0-.72,1.65,2.11,2.11,0,0,0,.72,1.66,2.48,2.48,0,0,0,1.69.68,2.53,2.53,0,0,0,1.69-.68,2.27,2.27,0,0,0,.72-1.66,2.16,2.16,0,0,0-.72-1.65A2.34,2.34,0,0,0,728.74,292.77Z" style="fill:#0e0e0e"/><path d="M699.36,284.38a19,19,0,0,0,5.4,5.55,17.17,17.17,0,0,0,4.65-5.55Z" style="fill:#0e0e0e"/><rect x="-10.1" y="-20.48" width="1242.86" height="103.17" style="fill:#0e0e0e"/><rect x="-10.1" y="487.46" width="1250.79" height="79.47" style="fill:#0e0e0e"/></svg>